<svg width="75" height="80" viewBox="0 0 75 80" fill="none" xmlns="http://www.w3.org/2000/svg">
<path d="M38.4868 0C40.8424 0 43.1014 0.947665 44.7671 2.63452C46.4327 4.32138 47.3684 6.60924 47.3684 8.99482V43.6668C45.9158 43.8707 44.4868 44.5623 43.3145 45.8256L41.4474 47.8484V8.99482C41.4474 8.19963 41.1355 7.437 40.5802 6.87472C40.025 6.31243 39.272 5.99654 38.4868 5.99654H8.88158C8.0964 5.99654 7.34338 6.31243 6.78817 6.87472C6.23296 7.437 5.92105 8.19963 5.92105 8.99482V70.9591C5.92105 72.6142 7.24737 73.9574 8.88158 73.9574H38.4868C38.7825 73.9578 39.0766 73.9133 39.3592 73.8255L43.3145 78.099L43.5553 78.3469C42.0683 79.3959 40.299 79.9569 38.4868 79.9539H8.88158C6.52604 79.9539 4.26697 79.0063 2.60136 77.3194C0.935736 75.6326 0 73.3447 0 70.9591V8.99482C0 6.60924 0.935736 4.32138 2.60136 2.63452C4.26697 0.947665 6.52604 0 8.88158 0H38.4868ZM18.7461 61.9803L27.6316 61.9643V67.9608L18.7539 67.9768C17.9688 67.9779 17.2153 67.663 16.6594 67.1015C16.1034 66.5399 15.7905 65.7777 15.7895 64.9826C15.7884 64.1874 16.0993 63.4243 16.6538 62.8613C17.2083 62.2982 17.9609 61.9813 18.7461 61.9803ZM71.6171 49.1797C70.3224 46.9929 68.9921 45.4978 68.0132 44.6703C67.716 44.407 67.3699 44.2066 66.9952 44.0808C66.6205 43.9551 66.2247 43.9065 65.8312 43.9379C65.4377 43.9693 65.0543 44.0801 64.7037 44.2638C64.353 44.4474 64.0422 44.7003 63.7895 45.0074C63.5368 45.3145 63.3473 45.6698 63.2321 46.0522C63.1169 46.4346 63.0784 46.8364 63.1189 47.2341C63.1593 47.6318 63.2779 48.0173 63.4677 48.3679C63.6574 48.7185 63.9144 49.0271 64.2237 49.2756C64.725 49.6994 65.6171 50.7028 66.5408 52.2619C68.1237 54.9403 69.0789 58.1585 69.0789 61.9643C69.0789 65.7701 68.1237 68.9922 66.5408 71.6667C65.6171 73.2258 64.725 74.2292 64.2237 74.653C63.9144 74.9015 63.6574 75.2101 63.4677 75.5607C63.2779 75.9113 63.1593 76.2968 63.1189 76.6945C63.0784 77.0921 63.1169 77.494 63.2321 77.8764C63.3473 78.2588 63.5368 78.614 63.7895 78.9212C64.0422 79.2283 64.353 79.4811 64.7037 79.6648C65.0543 79.8485 65.4377 79.9593 65.8312 79.9907C66.2247 80.0221 66.6205 79.9735 66.9952 79.8477C67.3699 79.722 67.716 79.5216 68.0132 79.2583C68.9921 78.4308 70.3224 76.9397 71.6171 74.7489C73.7329 71.179 75 66.9054 75 61.9643C75 57.0231 73.7368 52.7496 71.6171 49.1797ZM62.6605 53.5571C61.9416 52.4205 61.0427 51.4116 60 50.5709C59.3719 50.0937 58.5823 49.8889 57.805 50.0013C57.0277 50.1138 56.3264 50.5344 55.8553 51.1705C55.3842 51.8067 55.1819 52.6063 55.2929 53.3935C55.404 54.1807 55.8192 54.891 56.4474 55.3681C56.6921 55.552 57.1974 56.0677 57.7342 56.8832C58.6579 58.2824 59.2105 59.9614 59.2105 61.9643C59.2105 63.9631 58.6579 65.6422 57.7342 67.0454C57.3823 67.6126 56.9485 68.1233 56.4474 68.5605L56.1158 68.8523C55.5889 69.3905 55.2828 70.1108 55.2591 70.8684C55.2354 71.6259 55.4958 72.3644 55.988 72.9353C56.4802 73.5062 57.1676 73.8672 57.912 73.9455C58.6563 74.0239 59.4024 73.8139 60 73.3577C60.7461 72.7941 61.7171 71.8066 62.6605 70.3715C64.297 67.8829 65.1578 64.9541 65.1316 61.9643C65.1316 58.7182 64.2039 55.8998 62.6605 53.5531V53.5571ZM51.3158 50.9706C51.3155 50.361 51.1317 49.7659 50.7889 49.2647C50.4461 48.7636 49.9606 48.3802 49.3971 48.1656C48.8336 47.9511 48.2189 47.9156 47.635 48.0639C47.0511 48.2122 46.5258 48.5373 46.1289 48.9958L40.1053 55.9678H34.5395C33.7543 55.9678 33.0013 56.2836 32.4461 56.8459C31.8909 57.4082 31.5789 58.1708 31.5789 58.966V64.9626C31.5789 66.6176 32.9053 67.9608 34.5395 67.9608H40.1053L46.1289 74.9328C46.5258 75.3913 47.0511 75.7163 47.635 75.8647C48.2189 76.013 48.8336 75.9775 49.3971 75.763C49.9606 75.5484 50.4461 75.165 50.7889 74.6639C51.1317 74.1627 51.3155 73.5676 51.3158 72.958V50.9706Z" fill="white"/>
</svg>
