<svg width="64" height="80" viewBox="0 0 64 80" fill="none" xmlns="http://www.w3.org/2000/svg">
<path d="M40.25 56.7512V69.5312C40.25 70.6501 39.7956 71.7232 38.9869 72.5144C38.1781 73.3055 37.0812 73.75 35.9375 73.75H10.0625C8.91875 73.75 7.82185 73.3055 7.0131 72.5144C6.20435 71.7232 5.75 70.6501 5.75 69.5312V10.4688C5.75 9.34987 6.20435 8.27681 7.0131 7.48564C7.82185 6.69447 8.91875 6.25 10.0625 6.25H12.9777C14.7832 4.1125 16.8705 2.2225 19.1877 0.625H10.0625C7.39376 0.625 4.83432 1.66211 2.94724 3.50817C1.06015 5.35423 0 7.85803 0 10.4688V69.5312C0 74.965 4.508 79.375 10.0625 79.375H35.9375C38.6062 79.375 41.1657 78.3379 43.0528 76.4918C44.9398 74.6458 46 72.142 46 69.5312V55.7106C44.1204 56.2308 42.1955 56.5792 40.25 56.7512ZM14.375 65.3125C14.375 64.5666 14.6779 63.8512 15.2171 63.3238C15.7562 62.7963 16.4875 62.5 17.25 62.5H28.75C29.5125 62.5 30.2438 62.7963 30.7829 63.3238C31.3221 63.8512 31.625 64.5666 31.625 65.3125C31.625 66.0584 31.3221 66.7738 30.7829 67.3012C30.2438 67.8287 29.5125 68.125 28.75 68.125H17.25C16.4875 68.125 15.7562 67.8287 15.2171 67.3012C14.6779 66.7738 14.375 66.0584 14.375 65.3125ZM37.375 51.25C44.2375 51.25 50.8189 48.5832 55.6714 43.8361C60.5239 39.0891 63.25 32.6508 63.25 25.9375C63.25 19.2242 60.5239 12.7859 55.6714 8.03886C50.8189 3.29184 44.2375 0.625 37.375 0.625C30.5125 0.625 23.9311 3.29184 19.0786 8.03886C14.2261 12.7859 11.5 19.2242 11.5 25.9375C11.5 32.6508 14.2261 39.0891 19.0786 43.8361C23.9311 48.5832 30.5125 51.25 37.375 51.25ZM50.9105 19.4913L33.6605 36.3662C33.3934 36.6282 33.0762 36.836 32.7269 36.9778C32.3776 37.1195 32.0032 37.1925 31.625 37.1925C31.2468 37.1925 30.8724 37.1195 30.5231 36.9778C30.1738 36.836 29.8566 36.6282 29.5895 36.3662L23.8395 30.7413C23.5722 30.4798 23.3602 30.1693 23.2155 29.8277C23.0708 29.486 22.9964 29.1198 22.9964 28.75C22.9964 28.3802 23.0708 28.014 23.2155 27.6723C23.3602 27.3307 23.5722 27.0202 23.8395 26.7587C24.3793 26.2306 25.1115 25.9339 25.875 25.9339C26.253 25.9339 26.6274 26.0068 26.9766 26.1483C27.3259 26.2898 27.6432 26.4973 27.9105 26.7587L31.625 30.3981L46.8395 15.5087C47.3793 14.9806 48.1115 14.6839 48.875 14.6839C49.6385 14.6839 50.3707 14.9806 50.9105 15.5087C51.4503 16.0369 51.7536 16.7531 51.7536 17.5C51.7536 18.2469 51.4503 18.9631 50.9105 19.4913Z" fill="white"/>
</svg>
