<svg width="157" height="23" viewBox="0 0 157 23" fill="none" xmlns="http://www.w3.org/2000/svg">
<path d="M14.82 8V22H13.4V10.8L7.9 20.22H7.2L1.7 10.86V22H0.28V8H1.5L7.58 18.38L13.6 8H14.82ZM23.3816 22.1C22.3682 22.1 21.4549 21.8733 20.6416 21.42C19.8282 20.9533 19.1882 20.3133 18.7216 19.5C18.2549 18.6867 18.0216 17.7667 18.0216 16.74C18.0216 15.7133 18.2549 14.7933 18.7216 13.98C19.1882 13.1667 19.8282 12.5333 20.6416 12.08C21.4549 11.6267 22.3682 11.4 23.3816 11.4C24.3949 11.4 25.3082 11.6267 26.1216 12.08C26.9349 12.5333 27.5682 13.1667 28.0216 13.98C28.4882 14.7933 28.7216 15.7133 28.7216 16.74C28.7216 17.7667 28.4882 18.6867 28.0216 19.5C27.5682 20.3133 26.9349 20.9533 26.1216 21.42C25.3082 21.8733 24.3949 22.1 23.3816 22.1ZM23.3816 20.84C24.1282 20.84 24.7949 20.6733 25.3816 20.34C25.9816 19.9933 26.4482 19.5067 26.7816 18.88C27.1149 18.2533 27.2816 17.54 27.2816 16.74C27.2816 15.94 27.1149 15.2267 26.7816 14.6C26.4482 13.9733 25.9816 13.4933 25.3816 13.16C24.7949 12.8133 24.1282 12.64 23.3816 12.64C22.6349 12.64 21.9616 12.8133 21.3616 13.16C20.7749 13.4933 20.3082 13.9733 19.9616 14.6C19.6282 15.2267 19.4616 15.94 19.4616 16.74C19.4616 17.54 19.6282 18.2533 19.9616 18.88C20.3082 19.5067 20.7749 19.9933 21.3616 20.34C21.9616 20.6733 22.6349 20.84 23.3816 20.84ZM37.0406 11.4C38.0273 11.4 38.9206 11.6267 39.7206 12.08C40.5206 12.52 41.1473 13.1467 41.6006 13.96C42.054 14.7733 42.2806 15.7 42.2806 16.74C42.2806 17.78 42.054 18.7067 41.6006 19.52C41.1473 20.3333 40.5206 20.9667 39.7206 21.42C38.9206 21.8733 38.0273 22.1 37.0406 22.1C36.1606 22.1 35.3673 21.9133 34.6606 21.54C33.9673 21.1667 33.4073 20.6267 32.9806 19.92V22H31.6206V7.16H33.0406V13.48C33.4806 12.8 34.0406 12.2867 34.7206 11.94C35.414 11.58 36.1873 11.4 37.0406 11.4ZM36.9406 20.84C37.674 20.84 38.3406 20.6733 38.9406 20.34C39.5406 19.9933 40.0073 19.5067 40.3406 18.88C40.6873 18.2533 40.8606 17.54 40.8606 16.74C40.8606 15.94 40.6873 15.2267 40.3406 14.6C40.0073 13.9733 39.5406 13.4933 38.9406 13.16C38.3406 12.8133 37.674 12.64 36.9406 12.64C36.194 12.64 35.5206 12.8133 34.9206 13.16C34.334 13.4933 33.8673 13.9733 33.5206 14.6C33.1873 15.2267 33.0206 15.94 33.0206 16.74C33.0206 17.54 33.1873 18.2533 33.5206 18.88C33.8673 19.5067 34.334 19.9933 34.9206 20.34C35.5206 20.6733 36.194 20.84 36.9406 20.84ZM45.1753 11.48H46.5953V22H45.1753V11.48ZM45.8953 9.18C45.602 9.18 45.3553 9.08 45.1553 8.88C44.9553 8.68 44.8553 8.44 44.8553 8.16C44.8553 7.89333 44.9553 7.66 45.1553 7.46C45.3553 7.26 45.602 7.16 45.8953 7.16C46.1886 7.16 46.4353 7.26 46.6353 7.46C46.8353 7.64667 46.9353 7.87333 46.9353 8.14C46.9353 8.43333 46.8353 8.68 46.6353 8.88C46.4353 9.08 46.1886 9.18 45.8953 9.18ZM50.5464 7.16H51.9664V22H50.5464V7.16ZM65.0775 17.18H56.2775C56.3575 18.2733 56.7775 19.16 57.5375 19.84C58.2975 20.5067 59.2575 20.84 60.4175 20.84C61.0708 20.84 61.6708 20.7267 62.2175 20.5C62.7642 20.26 63.2375 19.9133 63.6375 19.46L64.4375 20.38C63.9708 20.94 63.3842 21.3667 62.6775 21.66C61.9842 21.9533 61.2175 22.1 60.3775 22.1C59.2975 22.1 58.3375 21.8733 57.4975 21.42C56.6708 20.9533 56.0242 20.3133 55.5575 19.5C55.0908 18.6867 54.8575 17.7667 54.8575 16.74C54.8575 15.7133 55.0775 14.7933 55.5175 13.98C55.9708 13.1667 56.5842 12.5333 57.3575 12.08C58.1442 11.6267 59.0242 11.4 59.9975 11.4C60.9708 11.4 61.8442 11.6267 62.6175 12.08C63.3908 12.5333 63.9975 13.1667 64.4375 13.98C64.8775 14.78 65.0975 15.7 65.0975 16.74L65.0775 17.18ZM59.9975 12.62C58.9842 12.62 58.1308 12.9467 57.4375 13.6C56.7575 14.24 56.3708 15.08 56.2775 16.12H63.7375C63.6442 15.08 63.2508 14.24 62.5575 13.6C61.8775 12.9467 61.0242 12.62 59.9975 12.62Z" fill="black"/>
<path d="M81.6078 10.93H87.7578V19.81C86.5178 20.67 85.0778 21.33 83.4378 21.79C81.7978 22.25 80.1878 22.48 78.6078 22.48C76.3678 22.48 74.3578 22.02 72.5778 21.1C70.7978 20.16 69.3978 18.86 68.3778 17.2C67.3778 15.52 66.8778 13.62 66.8778 11.5C66.8778 9.38 67.3778 7.49 68.3778 5.83C69.3978 4.15 70.8078 2.85 72.6078 1.93C74.4278 0.989999 76.4778 0.519999 78.7578 0.519999C80.8178 0.519999 82.6578 0.869999 84.2778 1.57C85.9178 2.25 87.2778 3.25 88.3578 4.57L83.8278 8.56C82.5078 7.02 80.9378 6.25 79.1178 6.25C77.5578 6.25 76.3178 6.72 75.3978 7.66C74.4778 8.6 74.0178 9.88 74.0178 11.5C74.0178 13.08 74.4678 14.35 75.3678 15.31C76.2878 16.27 77.5078 16.75 79.0278 16.75C79.9278 16.75 80.7878 16.58 81.6078 16.24V10.93ZM100.824 22.48C97.6045 22.48 95.0945 21.61 93.2945 19.87C91.4945 18.13 90.5945 15.69 90.5945 12.55V0.999999H97.6745V12.34C97.6745 13.88 97.9445 15 98.4845 15.7C99.0445 16.4 99.8445 16.75 100.884 16.75C101.924 16.75 102.714 16.4 103.254 15.7C103.814 15 104.094 13.88 104.094 12.34V0.999999H111.054V12.55C111.054 15.69 110.154 18.13 108.354 19.87C106.554 21.61 104.044 22.48 100.824 22.48ZM123.3 16.72H121.38V22H114.3V0.999999H124.41C126.35 0.999999 128.04 1.32 129.48 1.96C130.92 2.6 132.03 3.52 132.81 4.72C133.59 5.92 133.98 7.32 133.98 8.92C133.98 10.42 133.64 11.73 132.96 12.85C132.28 13.97 131.3 14.86 130.02 15.52L134.43 22H126.87L123.3 16.72ZM126.84 8.92C126.84 8.14 126.6 7.54 126.12 7.12C125.64 6.68 124.92 6.46 123.96 6.46H121.38V11.38H123.96C124.92 11.38 125.64 11.17 126.12 10.75C126.6 10.31 126.84 9.7 126.84 8.92ZM146.703 22.48C143.483 22.48 140.973 21.61 139.173 19.87C137.373 18.13 136.473 15.69 136.473 12.55V0.999999H143.553V12.34C143.553 13.88 143.823 15 144.363 15.7C144.923 16.4 145.723 16.75 146.763 16.75C147.803 16.75 148.593 16.4 149.133 15.7C149.693 15 149.973 13.88 149.973 12.34V0.999999H156.933V12.55C156.933 15.69 156.033 18.13 154.233 19.87C152.433 21.61 149.923 22.48 146.703 22.48Z" fill="#3CA1FF"/>
</svg>
