<svg width="228" height="28" viewBox="0 0 228 28" fill="none" xmlns="http://www.w3.org/2000/svg">
<path d="M26.276 1.8V27H23.72V6.84L13.82 23.796H12.56L2.66 6.948V27H0.104V1.8H2.3L13.244 20.484L24.08 1.8H26.276ZM41.6868 27.18C39.8628 27.18 38.2188 26.772 36.7548 25.956C35.2908 25.116 34.1388 23.964 33.2988 22.5C32.4588 21.036 32.0388 19.38 32.0388 17.532C32.0388 15.684 32.4588 14.028 33.2988 12.564C34.1388 11.1 35.2908 9.96 36.7548 9.144C38.2188 8.328 39.8628 7.92 41.6868 7.92C43.5108 7.92 45.1548 8.328 46.6188 9.144C48.0828 9.96 49.2228 11.1 50.0388 12.564C50.8788 14.028 51.2988 15.684 51.2988 17.532C51.2988 19.38 50.8788 21.036 50.0388 22.5C49.2228 23.964 48.0828 25.116 46.6188 25.956C45.1548 26.772 43.5108 27.18 41.6868 27.18ZM41.6868 24.912C43.0308 24.912 44.2308 24.612 45.2868 24.012C46.3668 23.388 47.2068 22.512 47.8068 21.384C48.4068 20.256 48.7068 18.972 48.7068 17.532C48.7068 16.092 48.4068 14.808 47.8068 13.68C47.2068 12.552 46.3668 11.688 45.2868 11.088C44.2308 10.464 43.0308 10.152 41.6868 10.152C40.3428 10.152 39.1308 10.464 38.0508 11.088C36.9948 11.688 36.1548 12.552 35.5308 13.68C34.9308 14.808 34.6308 16.092 34.6308 17.532C34.6308 18.972 34.9308 20.256 35.5308 21.384C36.1548 22.512 36.9948 23.388 38.0508 24.012C39.1308 24.612 40.3428 24.912 41.6868 24.912ZM66.2731 7.92C68.0491 7.92 69.6571 8.328 71.0971 9.144C72.5371 9.936 73.6651 11.064 74.4811 12.528C75.2971 13.992 75.7051 15.66 75.7051 17.532C75.7051 19.404 75.2971 21.072 74.4811 22.536C73.6651 24 72.5371 25.14 71.0971 25.956C69.6571 26.772 68.0491 27.18 66.2731 27.18C64.6891 27.18 63.2611 26.844 61.9891 26.172C60.7411 25.5 59.7331 24.528 58.9651 23.256V27H56.5171V0.287998H59.0731V11.664C59.8651 10.44 60.8731 9.516 62.0971 8.892C63.3451 8.244 64.7371 7.92 66.2731 7.92ZM66.0931 24.912C67.4131 24.912 68.6131 24.612 69.6931 24.012C70.7731 23.388 71.6131 22.512 72.2131 21.384C72.8371 20.256 73.1491 18.972 73.1491 17.532C73.1491 16.092 72.8371 14.808 72.2131 13.68C71.6131 12.552 70.7731 11.688 69.6931 11.088C68.6131 10.464 67.4131 10.152 66.0931 10.152C64.7491 10.152 63.5371 10.464 62.4571 11.088C61.4011 11.688 60.5611 12.552 59.9371 13.68C59.3371 14.808 59.0371 16.092 59.0371 17.532C59.0371 18.972 59.3371 20.256 59.9371 21.384C60.5611 22.512 61.4011 23.388 62.4571 24.012C63.5371 24.612 64.7491 24.912 66.0931 24.912ZM80.9156 8.064H83.4716V27H80.9156V8.064ZM82.2116 3.924C81.6836 3.924 81.2396 3.744 80.8796 3.384C80.5196 3.024 80.3396 2.592 80.3396 2.088C80.3396 1.608 80.5196 1.188 80.8796 0.827998C81.2396 0.467998 81.6836 0.287998 82.2116 0.287998C82.7396 0.287998 83.1836 0.467998 83.5436 0.827998C83.9036 1.164 84.0836 1.572 84.0836 2.052C84.0836 2.58 83.9036 3.024 83.5436 3.384C83.1836 3.744 82.7396 3.924 82.2116 3.924ZM90.5835 0.287998H93.1395V27H90.5835V0.287998ZM116.74 18.324H100.9C101.044 20.292 101.8 21.888 103.168 23.112C104.536 24.312 106.264 24.912 108.352 24.912C109.528 24.912 110.608 24.708 111.592 24.3C112.576 23.868 113.428 23.244 114.148 22.428L115.588 24.084C114.748 25.092 113.692 25.86 112.42 26.388C111.172 26.916 109.792 27.18 108.28 27.18C106.336 27.18 104.608 26.772 103.096 25.956C101.608 25.116 100.444 23.964 99.6035 22.5C98.7635 21.036 98.3435 19.38 98.3435 17.532C98.3435 15.684 98.7395 14.028 99.5315 12.564C100.348 11.1 101.452 9.96 102.844 9.144C104.26 8.328 105.844 7.92 107.596 7.92C109.348 7.92 110.92 8.328 112.312 9.144C113.704 9.96 114.796 11.1 115.588 12.564C116.38 14.004 116.776 15.66 116.776 17.532L116.74 18.324ZM107.596 10.116C105.772 10.116 104.236 10.704 102.988 11.88C101.764 13.032 101.068 14.544 100.9 16.416H114.328C114.16 14.544 113.452 13.032 112.204 11.88C110.98 10.704 109.444 10.116 107.596 10.116Z" fill="black"/>
<path d="M137.134 13.716H144.514V24.372C143.026 25.404 141.298 26.196 139.33 26.748C137.362 27.3 135.43 27.576 133.534 27.576C130.846 27.576 128.434 27.024 126.298 25.92C124.162 24.792 122.482 23.232 121.258 21.24C120.058 19.224 119.458 16.944 119.458 14.4C119.458 11.856 120.058 9.588 121.258 7.596C122.482 5.58 124.174 4.02 126.334 2.916C128.518 1.788 130.978 1.224 133.714 1.224C136.186 1.224 138.394 1.644 140.338 2.484C142.306 3.3 143.938 4.5 145.234 6.084L139.798 10.872C138.214 9.024 136.33 8.1 134.146 8.1C132.274 8.1 130.786 8.664 129.682 9.792C128.578 10.92 128.026 12.456 128.026 14.4C128.026 16.296 128.566 17.82 129.646 18.972C130.75 20.124 132.214 20.7 134.038 20.7C135.118 20.7 136.15 20.496 137.134 20.088V13.716ZM160.194 27.576C156.33 27.576 153.318 26.532 151.158 24.444C148.998 22.356 147.918 19.428 147.918 15.66V1.8H156.414V15.408C156.414 17.256 156.738 18.6 157.386 19.44C158.058 20.28 159.018 20.7 160.266 20.7C161.514 20.7 162.462 20.28 163.11 19.44C163.782 18.6 164.118 17.256 164.118 15.408V1.8H172.47V15.66C172.47 19.428 171.39 22.356 169.23 24.444C167.07 26.532 164.058 27.576 160.194 27.576ZM187.165 20.664H184.861V27H176.365V1.8H188.497C190.825 1.8 192.853 2.184 194.581 2.952C196.309 3.72 197.641 4.824 198.577 6.264C199.513 7.704 199.981 9.384 199.981 11.304C199.981 13.104 199.573 14.676 198.757 16.02C197.941 17.364 196.765 18.432 195.229 19.224L200.521 27H191.449L187.165 20.664ZM191.413 11.304C191.413 10.368 191.125 9.648 190.549 9.144C189.973 8.616 189.109 8.352 187.957 8.352H184.861V14.256H187.957C189.109 14.256 189.973 14.004 190.549 13.5C191.125 12.972 191.413 12.24 191.413 11.304ZM215.249 27.576C211.385 27.576 208.373 26.532 206.213 24.444C204.053 22.356 202.973 19.428 202.973 15.66V1.8H211.469V15.408C211.469 17.256 211.793 18.6 212.441 19.44C213.113 20.28 214.073 20.7 215.321 20.7C216.569 20.7 217.517 20.28 218.165 19.44C218.837 18.6 219.173 17.256 219.173 15.408V1.8H227.525V15.66C227.525 19.428 226.445 22.356 224.285 24.444C222.125 26.532 219.113 27.576 215.249 27.576Z" fill="#3CA1FF"/>
</svg>
