<svg width="47" height="80" viewBox="0 0 47 80" fill="none" xmlns="http://www.w3.org/2000/svg">
<path d="M38.1875 0C40.5247 0 42.7662 0.948211 44.4189 2.63604C46.0715 4.32387 47 6.61305 47 9V71C47 73.3869 46.0715 75.6761 44.4189 77.364C42.7662 79.0518 40.5247 80 38.1875 80H8.8125C6.47528 80 4.23379 79.0518 2.58112 77.364C0.928458 75.6761 0 73.3869 0 71V9C0 6.61305 0.928458 4.32387 2.58112 2.63604C4.23379 0.948211 6.47528 0 8.8125 0H38.1875ZM38.1875 6H8.8125C8.03343 6 7.28626 6.31607 6.73537 6.87868C6.18449 7.44129 5.875 8.20435 5.875 9V71C5.875 72.656 7.191 74 8.8125 74H38.1875C38.9666 74 39.7137 73.6839 40.2646 73.1213C40.8155 72.5587 41.125 71.7956 41.125 71V9C41.125 8.20435 40.8155 7.44129 40.2646 6.87868C39.7137 6.31607 38.9666 6 38.1875 6ZM28.3919 62C29.171 61.9989 29.9186 62.314 30.4702 62.8759C31.0218 63.4377 31.3323 64.2004 31.3333 64.996C31.3344 65.7916 31.0259 66.5551 30.4757 67.1185C29.9256 67.6819 29.1788 67.9989 28.3998 68L18.6081 68.016C17.829 68.0171 17.0814 67.702 16.5298 67.1402C15.9782 66.5783 15.6677 65.8156 15.6667 65.02C15.6656 64.2243 15.9741 63.4609 16.5243 62.8975C17.0744 62.3341 17.8212 62.0171 18.6002 62.016L28.3919 62Z" fill="white"/>
</svg>
